<?xml version="1.0" encoding="UTF-8"?>
<svg xmlns="http://www.w3.org/2000/svg" xmlns:xlink="http://www.w3.org/1999/xlink" width="595.5pt" height="842.249979pt" viewBox="0 0 595.5 842.249979" version="1.2">
<defs>
<clipPath id="clip1">
  <path d="M 0.015625 0 L 594.984375 0 L 594.984375 595.46875 L 0.015625 595.46875 Z M 0.015625 0 "/>
</clipPath>
<clipPath id="clip2">
  <path d="M 114.503906 186.394531 L 480.484375 186.394531 L 480.484375 409.015625 L 114.503906 409.015625 Z M 114.503906 186.394531 "/>
</clipPath>
</defs>
<g id="surface1">
<g clip-path="url(#clip1)" clip-rule="nonzero">
<path style=" stroke:none;fill-rule:nonzero;fill:rgb(0%,0%,0%);fill-opacity:1;" d="M 0.015625 0 L 595.484375 0 L 595.484375 595.46875 L 0.015625 595.46875 Z M 0.015625 0 "/>
</g>
<g clip-path="url(#clip2)" clip-rule="nonzero">
<path style=" stroke:none;fill-rule:nonzero;fill:rgb(100%,100%,100%);fill-opacity:1;" d="M 469.394531 409.015625 L 125.597656 409.015625 C 119.8125 409.015625 115.089844 404.390625 114.949219 398.605469 C 114.535156 380.867188 127.335938 369.023438 134.960938 364.824219 L 275.90625 282.699219 C 280.992188 279.742188 287.511719 281.449219 290.464844 286.546875 C 293.429688 291.640625 291.707031 298.167969 286.621094 301.125 L 145.449219 383.375 C 145.1875 383.535156 142.664062 385.015625 140.320312 387.695312 L 454.679688 387.695312 C 452.320312 384.992188 449.804688 383.535156 449.761719 383.5 L 316.253906 304.433594 C 304.910156 298.730469 298.65625 291.097656 298.273438 282.101562 C 297.738281 269.414062 309.613281 261.699219 310.972656 260.863281 C 311.816406 260.34375 312.722656 259.941406 313.675781 259.667969 C 338.511719 252.671875 337.324219 235.757812 337.308594 235.578125 C 337.269531 219.734375 325.148438 207.597656 310.25 207.597656 C 295.347656 207.597656 283.222656 219.734375 283.222656 234.652344 C 283.222656 240.546875 278.457031 245.3125 272.578125 245.3125 C 266.695312 245.3125 261.929688 240.542969 261.929688 234.652344 C 261.929688 207.980469 283.605469 186.277344 310.25 186.277344 C 336.894531 186.277344 358.5625 207.980469 358.5625 234.652344 C 359.550781 245.480469 353.007812 269.863281 321.320312 279.648438 C 320.753906 280.125 320.191406 280.707031 319.839844 281.1875 C 320.515625 281.988281 322.273438 283.625 326.480469 285.746094 L 460.3125 364.988281 C 467.65625 369.019531 480.453125 380.867188 480.039062 398.605469 C 479.902344 404.390625 475.175781 409.015625 469.394531 409.015625 Z M 469.394531 409.015625 "/>
</g>
</g>
</svg>
